<?xml version="1.0" encoding="utf-8"?>
<!-- Generator: Adobe Illustrator 18.1.1, SVG Export Plug-In . SVG Version: 6.00 Build 0)  -->
<svg version="1.1" id="Layer_1" xmlns="http://www.w3.org/2000/svg" xmlns:xlink="http://www.w3.org/1999/xlink" x="0px" y="0px"
	 viewBox="0 0 132 41" enable-background="new 0 0 132 41" xml:space="preserve">
<g>
	<path fill="#A09F9F" d="M11.7,9.9c-2.2,0-4.2,0.7-5.9,1.8c-0.3-1-1.2-1.7-2.3-1.7c-1.3,0-2.4,1.1-2.4,2.4v8.1v8.1v0
		C1.1,30,2.1,31,3.5,31c1.3,0,2.4-1.1,2.4-2.4v0v-8.1c0-3.2,2.6-5.8,5.8-5.8c3.2,0,5.8,2.6,5.8,5.8v8.1c0,1.3,1.1,2.4,2.4,2.4
		c1.3,0,2.4-1.1,2.4-2.4v-8.1C22.2,14.6,17.5,9.9,11.7,9.9L11.7,9.9z"/>
	<path fill="#A09F9F" d="M82,26.3c-3.2,0-5.8-2.6-5.8-5.8c0-3.2,2.6-5.8,5.8-5.8c3.2,0,5.8,2.6,5.8,5.8C87.8,23.7,85.2,26.3,82,26.3
		L82,26.3z M82,9.9c-2.1,0-4.1,0.6-5.8,1.7V3.3c0-1.3-1.1-2.4-2.4-2.4c-1.3,0-2.4,1.1-2.4,2.4v25.3c0,1.3,1.1,2.4,2.4,2.4
		c1.1,0,2-0.7,2.3-1.7c1.7,1.1,3.7,1.8,5.9,1.8c5.8,0,10.6-4.7,10.6-10.6S87.8,9.9,82,9.9L82,9.9z"/>
	<path fill="#A09F9F" d="M105.2,14.8c2.3,0,4.3,1.4,5.2,3.4H100C100.9,16.2,102.9,14.8,105.2,14.8L105.2,14.8z M115.7,20.6
		c0-5.8-4.7-10.6-10.6-10.6c-5.8,0-10.6,4.7-10.6,10.6c0,5.8,4.7,10.6,10.6,10.6c1.3,0,2.4-1.1,2.4-2.4c0-1.3-1.1-2.4-2.4-2.4
		c-2.3,0-4.3-1.4-5.2-3.3h13.4c1.2,0,2.1-0.8,2.4-1.9C115.7,20.9,115.7,20.7,115.7,20.6L115.7,20.6z"/>
	<path fill="#A09F9F" d="M11.7,9.9c-2.2,0-4.2,0.7-5.9,1.8c-0.3-1-1.2-1.7-2.3-1.7c-1.3,0-2.4,1.1-2.4,2.4v16.3
		C1.1,30,2.1,31,3.5,31s2.4-1.1,2.4-2.4v-8.2c0-3.2,2.6-5.8,5.8-5.8c3.2,0,5.8,2.6,5.8,5.8v8.1c0,1.3,1.1,2.4,2.4,2.4
		c1.3,0,2.4-1.1,2.4-2.4v-8.1C22.2,14.6,17.5,9.9,11.7,9.9L11.7,9.9z"/>
	<path fill="#A09F9F" d="M128.5,10c-2.2,0-4.2,0.7-5.9,1.8c-0.3-1-1.2-1.8-2.3-1.8c-1.3,0-2.4,1.1-2.4,2.4v16.3
		c0,1.3,1.1,2.4,2.4,2.4c1.3,0,2.4-1.1,2.4-2.4v-8.1c0-3.2,2.6-5.8,5.8-5.8c1.3,0,2.4-1.1,2.4-2.4C130.9,11.1,129.9,10,128.5,10
		L128.5,10z"/>
	<path fill="#A09F9F" d="M35,14.8c2.3,0,4.3,1.4,5.2,3.4H29.8C30.7,16.2,32.7,14.8,35,14.8L35,14.8z M45.6,20.6
		C45.6,14.8,40.8,10,35,10c-5.8,0-10.6,4.7-10.6,10.6c0,5.8,4.7,10.6,10.6,10.6c1.3,0,2.4-1.1,2.4-2.4c0-1.3-1.1-2.4-2.4-2.4
		c-2.3,0-4.3-1.4-5.2-3.3h13.4c1.2,0,2.1-0.8,2.4-1.9C45.6,20.9,45.6,20.7,45.6,20.6L45.6,20.6z"/>
	<path fill="#A09F9F" d="M68.5,12.3c0-1.3-1.1-2.4-2.4-2.4c-1.3,0-2.4,1.1-2.4,2.4l0,8.6c-0.2,3-2.6,5.3-5.6,5.3
		c-3.1,0-5.7-2.5-5.7-5.7v-8.3c0-1.3-1.1-2.4-2.4-2.4c-1.3,0-2.4,1.1-2.4,2.4v8.3c0,5.8,4.7,10.5,10.5,10.5c2.1,0,4-0.6,5.6-1.6l0,0
		l0,0.2c0,3.1-2.6,5.6-5.7,5.6c-1.3,0-2.4,1.1-2.4,2.4c0,1.3,1.1,2.4,2.4,2.4c5.8,0,10.5-4.7,10.5-10.5V12.3L68.5,12.3z"/>
</g>
</svg>
