<?xml version="1.0" encoding="utf-8"?>
<!-- Generator: Adobe Illustrator 19.2.1, SVG Export Plug-In . SVG Version: 6.00 Build 0)  -->
<!DOCTYPE svg PUBLIC "-//W3C//DTD SVG 1.1//EN" "http://www.w3.org/Graphics/SVG/1.1/DTD/svg11.dtd">
<svg version="1.1" id="Layer_1" xmlns="http://www.w3.org/2000/svg" xmlns:xlink="http://www.w3.org/1999/xlink" x="0px" y="0px"
	 width="575px" height="61.7px" viewBox="0 0 575 61.7" style="enable-background:new 0 0 575 61.7;" xml:space="preserve">
<style type="text/css">
	.st0{fill:#183642;}
	.st1{fill:#2B4C5A;}
	.st2{fill:#DD2550;}
	.st3{fill:#EE2F53;}
</style>
<path class="st0" d="M299.3,3.7h14.4c0.5,0,0.9,0.4,0.9,0.9V59c0,0.5-0.4,0.9-0.9,0.9h-14.4c-0.5,0-0.9-0.4-0.9-0.9V4.6
	C298.5,4.1,298.9,3.7,299.3,3.7z"/>
<path class="st1" d="M510.5,3.7h13.9c0.5,0,0.9,0.4,0.9,0.9v41.3c0,0.5,0.4,0.9,0.9,0.9h25.5c0.5,0,0.9,0.4,0.9,0.9V59
	c0,0.5-0.4,0.9-0.9,0.9h-41.1c-0.5,0-0.9-0.4-0.9-0.9V4.6C509.6,4.1,510,3.7,510.5,3.7z"/>
<path class="st0" d="M351.6,61C335.3,61,322,47.7,322,31.4s13.3-29.6,29.6-29.6c8.2,0,16,3.4,21.6,9.3c0.3,0.3,0.3,0.9,0,1.2
	l-8.8,8.8c-0.3,0.3-0.9,0.3-1.2-0.1c-2.9-3.3-7.1-5.2-11.5-5.2c-8.5,0-15.4,6.9-15.4,15.5s6.9,15.5,15.4,15.5
	c5.2,0,10.1-2.7,12.9-7.1l0.9-1.4h-11c-0.5,0-0.8-0.4-0.8-0.9V29c0-0.5,0.4-0.9,0.8-0.9h20.6c0.5,0,0.8,0.4,0.8,0.9v18.9
	c0,0.2-0.1,0.4-0.2,0.5C370.2,56.4,361.2,61,351.6,61z"/>
<circle class="st2" cx="32.2" cy="31" r="30"/>
<g>
	<path class="st3" d="M107.9,61c16.6,0,30-13.4,30-30c0-8-3.2-15.3-8.3-20.7L86.2,51.7C91.7,57.4,99.4,61,107.9,61z"/>
	<path class="st2" d="M107.9,1c-16.6,0-30,13.4-30,30c0,8,3.2,15.3,8.3,20.7l43.4-41.3C124.2,4.6,116.5,1,107.9,1z"/>
</g>
<circle class="st3" cx="183.7" cy="31" r="30"/>
<path class="st1" d="M488.2,59.8H502c0.6,0,1-0.6,0.8-1.2L482.2,4.3c-0.1-0.3-0.4-0.6-0.8-0.6h-17.3c-0.4,0-0.7,0.2-0.8,0.6
	l-20.5,54.4c-0.2,0.6,0.2,1.2,0.8,1.2h13.8c0.4,0,0.7-0.2,0.8-0.6l4.1-10.7c0.1-0.3,0.4-0.6,0.8-0.6h19.5c0.4,0,0.7,0.2,0.8,0.6
	l4.1,10.7C487.5,59.6,487.8,59.8,488.2,59.8z M466.8,36.4l5.9-15.8l5.9,15.8H466.8z"/>
<g>
	<path class="st1" d="M383.8,59c0,0.5,0.4,0.9,0.9,0.9h13.7c0.5,0,0.9-0.4,0.9-0.9V43.8l-15.4,14.7V59H383.8z"/>
	<path class="st1" d="M420.5,23.5V35l-4.9-6.8l-9.4,9l16.5,22.4c0.2,0.2,0.4,0.4,0.7,0.4h11.8c0.5,0,0.9-0.4,0.9-0.9V8.8L420.5,23.5
		z"/>
	<path class="st0" d="M436,4.6c0-0.5-0.4-0.9-0.9-0.9h-13.7c-0.5,0-0.9,0.4-0.9,0.9v18.9L436,8.8V4.6z"/>
	<path class="st0" d="M398.2,4.1c-0.2-0.2-0.4-0.4-0.7-0.4h-12.9c-0.5,0-0.9,0.4-0.9,0.9v53.9l15.4-14.7V27.5l7,9.6l9.4-9L398.2,4.1
		z"/>
</g>
<g>
	<path class="st0" d="M240.2,51c-0.4,0.4-0.4,1.1,0.1,1.4c7.1,4.5,16.9,8,23.6,8.5c1,0.1,2.1,0.1,3.1,0.1l0,0
		c12.7,0,21.2-6.4,22.1-16.7v-0.2c1-11.8-8.7-16.4-19.3-19.6c-11.6-3.4-11.2-4.9-11.3-6.7v-0.2c0.2-2,2.5-3.2,5.9-3.2
		c0.4,0,0.8,0,1.2,0c2.6,0.2,6,1.4,10.4,3.7c0.3,0.2,0.7,0.1,1-0.1c1.6-1.6,7.4-7,9.5-9c0.4-0.4,0.4-1.1-0.1-1.4
		c-5.6-3.6-12.7-6-19.4-6.5C266.1,1,265.2,1,264.4,1c-11.9,0-20.8,6.7-21.6,16.3v0.2c-1.1,12.6,8.9,16.6,20.1,20
		c10.8,3.2,10.7,4.9,10.6,6.4v0.2c-0.2,2.2-2.7,3.6-6.6,3.6c-0.4,0-0.9,0-1.4-0.1c-4-0.3-10.1-2.6-14.8-5.5c-0.3-0.2-0.8-0.2-1,0.1
		L240.2,51z"/>
</g>
</svg>
